<?xml version="1.0" encoding="utf-8" ?>
<svg xmlns="http://www.w3.org/2000/svg" xmlns:xlink="http://www.w3.org/1999/xlink" width="1436" height="1026">
	<path fill="#FEFEFE" d="M0 0L1434.77 0C1437.09 4.05473 1436 12.8543 1436 17.6201L1436.01 777.741L1436 961.907C1436 971.836 1437.15 1018 1435.74 1023.9C1435.55 1024.68 1435.17 1025.31 1434.77 1026L0 1026L0 0Z"/>
	<path d="M806.059 104.77C826.376 101.562 850.954 106.096 870.076 113.088C902.981 125.122 933.233 146.989 948.17 179.425C971.348 229.754 958.168 289.311 939.835 338.857C985.256 351.492 1030.38 365.608 1075.6 378.974L1116.56 391.063C1122.8 392.907 1130.19 394.37 1136.04 397.151C1139.32 395.212 1142.43 390.4 1145.16 387.61Q1148.28 384.388 1151.7 381.491Q1155.12 378.594 1158.81 376.05C1167.22 370.25 1182.91 361.25 1193.61 363.605C1196.48 364.236 1199.68 365.985 1201.1 368.66C1202.51 371.313 1202.11 374.384 1201.33 377.159C1199.36 384.141 1191.65 395.245 1185.3 398.755C1199 398.174 1227.84 395.325 1239.5 400.961C1241.95 402.144 1244.93 404.088 1245.72 406.837C1246.13 408.267 1245.8 409.647 1245.06 410.911C1240.36 419.004 1225.21 421.962 1216.75 424.155C1228.02 426.019 1244.53 428.312 1252.9 436.62C1255.29 438.992 1256.84 441.826 1256.69 445.274C1256.59 447.698 1255.47 449.75 1253.7 451.373C1244.79 459.537 1221.45 457.033 1210.23 456.669C1219.33 458.895 1232.49 463.752 1238.27 471.35C1239.83 473.392 1241.12 476.041 1240.66 478.686C1240.27 480.937 1238.64 482.739 1236.81 483.98C1227.67 490.156 1213.54 486.054 1203.72 483.931C1204.02 484.276 1204.17 484.416 1204.42 484.767C1206.14 487.117 1207.49 490.095 1206.97 493.057C1206.53 495.558 1204.97 497.613 1202.82 498.916C1198.34 501.633 1192.64 501.424 1187.69 500.354C1172.16 496.996 1146.66 481.38 1136.37 469.234C1132.58 464.755 1130.78 459.248 1127.57 454.433C1127.47 454.287 1127.37 454.143 1127.27 453.998C1121.45 451.39 1113.91 450.17 1107.7 448.535L1067.8 437.994L912.298 396.522Q906.518 406.555 900.329 416.341Q894.139 426.127 887.552 435.649Q880.964 445.171 873.989 454.412Q867.013 463.654 859.663 472.6Q852.312 481.546 844.598 490.181Q836.885 498.816 828.821 507.125Q820.758 515.434 812.359 523.403Q803.959 531.372 795.238 538.988C801.961 574.597 810.852 610.133 818.657 645.549L863.659 849.473Q872.647 848.208 881.715 847.826C909.975 846.531 940.866 851.537 962.338 871.333C965.101 873.88 969.488 877.668 969.673 881.653C968.688 883.051 967.874 883.325 966.213 883.838C961.196 885.387 955.519 886.154 950.363 887.288L915.774 894.905L806.285 918.94L736.451 583.978C724.695 591.423 712.882 598.657 700.61 605.227C684.481 600.633 668.588 594.319 653.228 587.641L626.462 716.417C622.392 733.5 619.221 750.911 615.639 768.107C604.142 823.3 593.759 879 580.933 933.886C570.232 932.161 559.594 929.463 549.009 927.13L494.317 915.092L446.132 904.51C436.265 902.349 426.201 900.513 416.525 897.62C420.257 891.045 425.069 885.788 431.108 881.227C456.367 862.15 493.592 860.563 523.758 864.625C545.336 761.675 569.121 659.084 591.635 556.327C534.033 522.204 484.755 478.894 442.061 427.401C417.902 434.504 393.251 440.443 368.909 446.921L227.46 484.502C226.697 486.55 225.925 488.62 224.977 490.592C217.258 506.652 191.141 523.025 174.41 528.905C167.722 531.255 158.353 533.035 151.724 529.496C150.224 528.695 148.914 527.425 148.525 525.718C147.591 521.62 149.548 517.714 151.703 514.411C142.425 516.623 131.421 519.475 122.077 516.366C119.551 515.525 116.699 513.946 115.578 511.392C114.613 509.193 114.986 506.782 115.925 504.645C120.026 495.309 134.285 490.9 142.998 487.463C131.648 487.538 113.084 489.592 103.367 483.203C101.125 481.729 99.2882 479.649 98.9017 476.913C98.4977 474.053 99.2779 471.298 100.987 468.992C108.352 459.055 127.827 456.612 139.223 454.52C130.687 452.701 119.52 450.68 113.037 444.473C111.456 442.96 110.063 440.962 110.091 438.684C110.114 436.76 111.155 434.986 112.522 433.694C121.392 425.309 156.561 428.651 168.939 429.34Q166.949 427.128 165.012 424.868C160.062 419.071 152.381 409.253 153.385 401.024C153.603 399.237 154.432 397.428 155.921 396.356C159.292 393.929 164.465 394.047 168.428 394.526C188.371 396.935 206.619 412.373 218.531 427.633C239.691 421.893 260.691 415.204 281.721 408.987L405.032 372.546C392.205 347.812 381.091 322.821 375.94 295.253C369.684 261.766 373.075 226.851 392.766 198.25C414.893 166.112 452.17 142.512 490.443 135.614C549.926 124.894 612.12 150.226 660.182 183.7C698.368 143.485 750.034 110.662 806.059 104.77Z"/>
	<path fill="#E57575" d="M1200.12 426.738C1213.28 425.806 1239.42 431.339 1249.48 439.453C1251.62 441.18 1253.46 442.986 1253.76 445.832C1249.16 458.782 1203.9 448.661 1197.87 453.859L1198.03 455.566C1202.1 458.772 1208.02 458.748 1212.34 461.456C1212.61 461.624 1212.87 461.803 1213.14 461.976C1219.39 463.413 1227.65 467.028 1232.55 471.186C1234.48 472.824 1236.13 474.745 1236.31 477.344C1235.51 479.517 1234.73 481.009 1232.56 482.054C1222.45 486.949 1198.03 477.454 1187.6 474.091C1187.73 473.963 1187.88 473.85 1188 473.708C1189.97 471.368 1200.3 430.689 1200.12 426.738Z"/>
	<path fill="#E57575" d="M383.73 383C386.797 384.427 391.673 393.2 393.866 396.084C402.641 407.617 412.575 418.037 422.57 428.495L224.25 481.177C220.464 492.623 214.263 500.051 204.573 507.168C194.242 514.755 171.068 530.374 158.108 527.639C156.218 527.24 153.75 525.653 152.815 523.916C148.541 515.967 168.161 511.24 170.429 505.851C169.61 504.869 169.032 504.53 167.641 504.506C166.057 504.477 162.197 506.45 160.484 507.053C150.145 510.689 137.6 514.69 126.58 513.502C124.241 513.25 121.442 512.629 120.024 510.568C119.208 509.382 119.055 507.704 119.395 506.33C121.733 496.864 150.046 490.743 158.202 485.73L158.025 483.953C145.179 480.559 126.069 485.764 111.485 482.12C108.796 481.448 104.388 479.998 103.053 477.421C102.38 476.121 102.437 474.956 102.975 473.607C104.487 469.821 109.462 467.25 112.851 465.477C120.495 462.608 128.937 460.116 137.028 458.936C143.433 458.002 150.374 458.373 156.473 456.049L156.812 455.165C149.75 448.397 123.814 451.8 114.825 440.184C114.353 438.214 114.373 438.327 115.371 436.554C124.308 430.042 154.005 432.389 165.152 433.258C166.111 438.312 167.149 442.785 169.571 447.351C173.632 455.007 181.398 461.871 189.865 464.203C196.039 465.902 209.232 466.592 214.843 462.763C216.07 461.925 216.059 461.412 216.364 460.057C215.85 459.14 216.12 459.011 214.973 458.908C213.13 458.743 210.873 459.59 209.084 460.031C200.15 462.236 193.175 462.209 184.941 457.478C175.136 451.844 171.916 443.942 169.053 433.627C170.789 433.704 173.511 434.123 175.05 433.218C176.057 432.625 175.858 432.366 176.13 431.312C174.614 428.231 171.593 426.021 169.204 423.591C165.022 419.337 157.289 409.714 157.656 403.546C157.741 402.108 158.346 400.883 159.488 399.991C161.81 398.177 165.371 398.166 168.154 398.523C188.42 401.121 205.091 416.908 216.997 432.343L383.73 383Z"/>
	<path fill="#E57575" d="M588.083 592.063Q615.201 605.508 642.778 617.986L577.974 929.422C550.567 922.189 522.189 917.073 494.478 910.978Q458.519 903.208 422.649 895.038Q427.041 889.856 432.383 885.661C458.554 865.281 495.444 865.009 526.783 869.067C533.186 843.815 538.146 818.016 543.757 792.556C558.48 725.754 572.372 658.632 588.083 592.063Z"/>
	<path fill="#E57575" d="M814.349 108.303C834.44 107.299 854.92 111.223 873.518 118.757C905.036 131.523 932.748 152.86 946.13 184.825C965.715 231.608 954.866 291.235 936.346 336.58C934.83 337.217 933.482 337.638 932.459 339.003C933.132 340.585 933.242 340.592 934.789 341.323C939.275 343.444 944.822 344.577 949.596 345.989L978.413 354.508L1093.6 388.602C1107.82 392.9 1123.68 395.913 1137.32 401.627C1137.45 401.68 1137.57 401.736 1137.7 401.791C1140.58 400.071 1143.15 395.937 1145.42 393.397C1155.18 382.499 1167.65 372.831 1182.01 369.064C1186.28 367.944 1192.25 366.663 1196.26 368.964C1205.24 379.285 1179.88 394.222 1179.66 402.243C1181.91 404.105 1183.55 402.331 1185.95 403.703C1186.04 404.369 1186.1 404.928 1186 405.599C1184.83 412.832 1179.14 421.185 1173.17 425.299C1161.27 433.496 1156.14 430.962 1143.17 428.931C1141.51 428.671 1140.33 428.499 1138.98 429.528C1139.76 431.006 1141.44 432.068 1142.9 432.824C1149.34 436.159 1158.46 435.793 1165.2 433.595C1174.25 430.642 1182.68 424.086 1186.96 415.467C1188.68 411.999 1190.57 406.352 1189.31 402.59C1202.93 402.142 1217.15 401.199 1230.71 402.726C1233.65 403.057 1238.91 404.118 1240.68 406.656C1241.55 407.905 1241.23 408.35 1240.94 409.747C1234.42 418.088 1211.04 420.925 1200.68 422.318C1201.77 421.004 1202.73 419.331 1203.15 417.672C1203.6 415.909 1203.43 414.342 1202.54 412.785L1201.43 413.104C1200.26 414.678 1199.5 416.265 1198.85 418.106C1194.97 429.078 1192.74 441.234 1189.87 452.538C1187.9 460.309 1185.02 468.548 1183.77 476.412C1183.47 478.284 1183.38 478.62 1184.19 480.329C1186.81 481.251 1186.27 478.676 1188.42 478.746C1191.81 478.857 1197.3 483.515 1199.57 485.876C1201.59 487.973 1202.89 489.872 1202.85 492.867C1202.39 493.763 1202.01 494.494 1201.22 495.146C1198.77 497.166 1195.61 497.503 1192.55 497.228C1178.22 495.939 1148.5 477.877 1139.25 466.532C1135.44 461.869 1134.29 455.256 1130.5 450.952C1130.4 450.843 1130.3 450.739 1130.2 450.632C1125.02 447.883 1116.79 446.728 1111.05 445.224L1068.9 434.102C1011.37 418.796 953.922 402.368 896.148 388.078C893.173 387.343 889.993 386.662 886.913 386.94C886.107 387.013 886.485 386.92 885.791 387.79C889.195 392.177 902.504 393.995 908.075 395.433C879.786 448.024 837.933 494.279 794.298 534.474Q794.052 533.3 793.774 532.134C793.27 530.099 793.049 529.057 791.265 527.959L789.863 528.423C788.958 530.238 789.727 532.533 790.078 534.443C794.721 559.68 801.208 584.744 806.701 609.824L842.791 773.684L860.433 853.688C872.434 852.654 884.139 851.45 896.209 851.995C922.39 853.176 946.513 859.969 964.742 879.965C913.28 892.322 861.18 902.56 809.542 914.221C806.808 903.465 804.901 892.388 802.634 881.513L789.683 819.352L751.501 636.433C749.86 628.52 739.281 572.184 736.859 569.094L735.236 568.906L734.274 569.956C733.814 573.216 734.888 576.466 735.62 579.634Q718.329 590.955 700.228 600.931C651.407 586.389 604.118 561.337 562.179 532.516C484.247 478.96 397.317 389.314 379.881 294.236C373.927 261.769 377.13 227.894 396.324 200.229C417.932 169.086 454.277 146.169 491.478 139.552C551.456 128.884 612.42 155.309 660.628 188.97C702.042 146.721 753.61 111.59 814.349 108.303Z"/>
	<path d="M528.441 282.985C528.931 283.033 529.096 283.033 529.625 283.176C531.262 283.619 531.634 283.993 532.426 285.449C532.011 291.086 524.406 298.237 520.899 302.483C520.282 302.517 519.808 302.476 519.216 302.29C517.542 301.764 517.637 301.662 516.834 300.166C517.504 294.452 524.9 287.378 528.441 282.985Z"/>
	<path d="M841.113 257.058C841.634 257.23 841.865 257.285 842.387 257.57C843.841 258.364 844.127 258.956 844.519 260.499C843.191 266.572 836.502 272.77 832.566 277.395C831.991 277.241 831.675 277.182 831.109 276.901C829.626 276.163 829.409 275.439 829.087 273.921C830.46 267.936 837.211 261.637 841.113 257.058Z"/>
	<path d="M510.164 284.374C510.245 284.391 510.327 284.403 510.406 284.427C512.377 285.024 512.687 285.083 513.816 286.865C513.573 292.492 505.536 300.026 501.914 304.369C501.63 304.284 501.339 304.215 501.06 304.113C499.395 303.505 499.026 303.119 498.302 301.535C499.154 295.509 506.349 288.913 510.164 284.374Z"/>
	<path d="M821.848 259.237C822.419 259.196 822.704 259.151 823.31 259.236C824.93 259.462 825.369 260.041 826.135 261.371C825.561 267.051 817.835 274.415 814.298 278.764C813.81 278.697 813.632 278.69 813.116 278.519C811.539 277.996 811.182 277.498 810.466 276.057C811.029 270.436 818.338 263.521 821.848 259.237Z"/>
	<path d="M699.765 291.331C700.36 291.525 700.671 291.603 701.257 291.919C702.93 292.821 703.15 293.704 703.676 295.359C703.299 298.086 701.876 300.16 700.057 302.145C693.242 309.58 683.167 313.826 673.167 314.222C662.604 314.639 653.898 311.326 646.185 304.204C645.206 303.023 643.971 301.56 643.552 300.057C643.095 298.42 643.018 297.221 643.794 295.756C648.75 295.03 651.756 301.562 655.459 304.008C661.842 308.226 670.805 309.205 678.163 307.709C688.387 305.63 694.249 299.666 699.765 291.331Z"/>
	<path d="M748.089 188.102C755.601 186.706 764.377 189.23 770.723 193.254C782.195 200.53 789.313 213.57 792.198 226.569C795.651 242.131 793.695 259.482 784.873 272.992C778.657 282.511 770.547 287.891 759.53 290.295Q758.084 290.437 756.632 290.46Q755.18 290.483 753.73 290.387Q752.281 290.291 750.844 290.076Q749.407 289.861 747.993 289.529Q746.579 289.197 745.197 288.75Q743.815 288.303 742.474 287.744Q741.133 287.185 739.843 286.518Q738.552 285.851 737.321 285.08C725.614 277.754 718.337 264.62 715.488 251.376C712.156 235.889 714.288 218.368 723.14 205.006C729.214 195.836 737.378 190.325 748.089 188.102Z"/>
	<path fill="#FEFEFE" d="M748.914 191.721C757.431 191.38 765.306 193.836 771.97 199.179C782.603 207.704 788.229 221.745 789.469 235.028C790.768 248.928 787.732 263.759 778.61 274.661C771.658 282.97 763.758 285.818 753.24 286.764C756.136 285.099 758.883 283.277 761.638 281.39C770.392 272.753 773.396 262.371 775.698 250.655C766.218 246.545 756.122 243.236 746.434 239.609L773.937 224.827C772.949 221.712 771.911 218.626 770.628 215.619C767.028 207.182 760.749 197.617 751.851 194.073C750.734 193.628 749.648 193.118 748.552 192.624L748.914 191.721Z"/>
	<path d="M579.918 199.292C587.581 198.979 594.269 200.016 601.028 203.844C612.433 210.303 619.843 222.46 623.232 234.844C627.5 250.442 626.245 268.177 617.969 282.279C611.958 292.523 603.838 298.518 592.459 301.556C584.265 302.336 576.619 300.981 569.517 296.71C557.863 289.701 550.572 276.831 547.51 263.87C543.849 248.374 545.542 231.076 554.13 217.426C560.315 207.595 568.642 201.798 579.918 199.292Z"/>
	<path fill="#FEFEFE" d="M579.145 203.608C587.959 202.743 595.587 204.408 602.754 209.807C613.469 217.878 619.398 231.38 621.07 244.415C622.881 258.526 620.104 273.9 611.078 285.215C603.645 294.532 595.126 297.24 583.767 298.522C586.683 297.142 589.414 295.49 592.18 293.836C601.904 285.27 605.073 274.286 607.509 262.029L578.381 250.956L605.697 236.205C604.635 232.897 603.57 229.565 602.177 226.379C597.28 215.178 590.51 208.101 579.145 203.608Z"/>
</svg>
